<?xml version="1.0" encoding="UTF-8" standalone="no"?>
<!-- Created with Inkscape (http://www.inkscape.org/) -->

<svg
   xmlns:dc="http://purl.org/dc/elements/1.1/"
   xmlns:cc="http://creativecommons.org/ns#"
   xmlns:rdf="http://www.w3.org/1999/02/22-rdf-syntax-ns#"
   xmlns:svg="http://www.w3.org/2000/svg"
   xmlns="http://www.w3.org/2000/svg"
   xmlns:sodipodi="http://sodipodi.sourceforge.net/DTD/sodipodi-0.dtd"
   xmlns:inkscape="http://www.inkscape.org/namespaces/inkscape"
   version="1.1"
   id="svg2"
   width="621"
   height="427"
   viewBox="0 0 621 427"
   sodipodi:docname="arrow-left.svg"
   inkscape:version="0.92.1 r15371">
  <metadata
     id="metadata8">
    <rdf:RDF>
      <cc:Work
         rdf:about="">
        <dc:format>image/svg+xml</dc:format>
        <dc:type
           rdf:resource="http://purl.org/dc/dcmitype/StillImage" />
        <dc:title></dc:title>
      </cc:Work>
    </rdf:RDF>
  </metadata>
  <defs
     id="defs6" />
  <sodipodi:namedview
     pagecolor="#ffffff"
     bordercolor="#666666"
     borderopacity="1"
     objecttolerance="10"
     gridtolerance="10"
     guidetolerance="10"
     inkscape:pageopacity="0"
     inkscape:pageshadow="2"
     inkscape:window-width="1920"
     inkscape:window-height="1017"
     id="namedview4"
     showgrid="false"
     inkscape:pagecheckerboard="true"
     inkscape:zoom="1.8293076"
     inkscape:cx="318.25197"
     inkscape:cy="240.98934"
     inkscape:window-x="-8"
     inkscape:window-y="-8"
     inkscape:window-maximized="1"
     inkscape:current-layer="svg2" />
  <path
     style="fill:#1c1919;fill-opacity:1;stroke-width:0.71434665"
     d="M 283.5605,113.31181 C 339.04543,57.846367 385.23008,11.802323 386.19304,10.991704 c 3.20726,-2.6998808 8.91913,-5.5225383 12.89327,-6.371525 9.80747,-2.0951482 8.35266,-2.0985427 18.21585,0.042492 7.32604,1.5902891 15.88025,8.066493 20.75155,15.710531 2.09263,3.283775 5.3221,13.804874 5.3221,17.3386 0,4.500121 -2.82797,14.126055 -5.39052,18.348437 -1.68477,2.776056 -25.64371,27.235108 -79.23344,80.887321 -42.25012,42.29939 -76.81839,77.08547 -76.81839,77.30241 0,0.21694 34.44317,34.85941 76.54039,76.98329 43.17659,43.20393 77.55896,78.16897 78.87708,80.21383 2.80996,4.35918 5.20472,11.33083 5.78788,16.84971 0.5044,4.77344 -1.73737,14.17436 -4.51238,18.92278 -3.96686,6.78783 -11.79899,13.51305 -18.37618,15.77908 -4.64126,1.59904 -12.77778,2.91885 -14.34621,2.32706 -0.80308,-0.30299 -3.54958,-0.93505 -6.10338,-1.40455 -5.49692,-1.01059 -10.84012,-3.89308 -15.93974,-8.59897 -2.85768,-2.63707 -200.33283,-200.04498 -201.0233,-200.95486 -0.0873,-0.1151 45.23795,-45.5901 100.72288,-101.05553 z"
     id="path4487"
     inkscape:connector-curvature="0" />
</svg>
